<svg width="52" height="52" viewBox="0 0 52 52" fill="none" xmlns="http://www.w3.org/2000/svg">
<path fill-rule="evenodd" clip-rule="evenodd" d="M45.2712 0H31.9281V6.67158H45.2712V0ZM20.0146 6.67158H6.67158V13.3431H0V6.67147H6.67147V0H20.0146V6.67158ZM45.2716 13.3432H51.9431V20.0148H45.2717V23.3505H38.6001V16.679H45.2716V13.3432ZM6.67147 33.3579H0V45.2714H6.67158V35.7408H13.3431V29.0692H6.67147V33.3579ZM51.943 45.2716H0V51.9431H51.943V45.2716ZM6.67158 13.3432H0V20.0148H6.67147V23.3505H13.3429V29.069H38.5997V16.679H13.3431H13.3429H6.67158V13.3432ZM38.6001 29.0692H45.2717V33.3579H51.9431V45.2714H45.2716V35.7408H38.6001V29.0692ZM45.2716 6.67147H51.9431V13.3431H45.2716V6.67147Z" fill="#60A5FA"/>
</svg>
