<svg width="22" height="22" viewBox="0 0 22 22" fill="none" xmlns="http://www.w3.org/2000/svg">
<path d="M3.7847 7.22887C3.46172 7.55185 3.28027 7.98991 3.28027 8.44667V16.1967C3.28027 16.6534 3.46172 17.0915 3.7847 17.4145C4.10768 17.7374 4.54573 17.9189 5.0025 17.9189H17.0581C17.5148 17.9189 17.9529 17.7374 18.2758 17.4145C18.5988 17.0915 18.7803 16.6534 18.7803 16.1967V8.44667C18.7803 7.98991 18.5988 7.55185 18.2758 7.22887C17.9529 6.90589 17.5148 6.72445 17.0581 6.72445H16.2572C15.9738 6.72449 15.6947 6.65456 15.4447 6.52087C15.1947 6.38718 14.9817 6.19386 14.8243 5.95806L14.1251 4.9075C13.9678 4.6717 13.7547 4.47838 13.5047 4.34469C13.2548 4.211 12.9757 4.14107 12.6922 4.14111H9.36833C9.08486 4.14107 8.80577 4.211 8.55581 4.34469C8.30586 4.47838 8.09276 4.6717 7.93544 4.9075L7.23622 5.95806C7.07889 6.19386 6.8658 6.38718 6.61584 6.52087C6.36589 6.65456 6.08679 6.72449 5.80333 6.72445H5.0025C4.54573 6.72445 4.10768 6.90589 3.7847 7.22887Z" stroke="#6B7280" stroke-width="2" stroke-linecap="round" stroke-linejoin="round"/>
<path d="M12.857 13.7181C13.3415 13.2337 13.6137 12.5766 13.6137 11.8914C13.6137 11.2063 13.3415 10.5492 12.857 10.0647C12.3726 9.58028 11.7155 9.30811 11.0304 9.30811C10.3452 9.30811 9.68813 9.58028 9.20366 10.0647C8.71919 10.5492 8.44702 11.2063 8.44702 11.8914C8.44702 12.5766 8.71919 13.2337 9.20366 13.7181C9.68813 14.2026 10.3452 14.4748 11.0304 14.4748C11.7155 14.4748 12.3726 14.2026 12.857 13.7181Z" stroke="#6B7280" stroke-width="2" stroke-linecap="round" stroke-linejoin="round"/>
</svg>
