<svg width="16" height="16" viewBox="0 0 16 16" fill="none" xmlns="http://www.w3.org/2000/svg">
<path d="M1.6001 8.7999C1.6001 8.58773 1.68438 8.38425 1.83441 8.23422C1.98444 8.08419 2.18792 7.9999 2.4001 7.9999H4.0001C4.21227 7.9999 4.41575 8.08419 4.56578 8.23422C4.71581 8.38425 4.8001 8.58773 4.8001 8.7999V12.7999C4.8001 13.0121 4.71581 13.2156 4.56578 13.3656C4.41575 13.5156 4.21227 13.5999 4.0001 13.5999H2.4001C2.18792 13.5999 1.98444 13.5156 1.83441 13.3656C1.68438 13.2156 1.6001 13.0121 1.6001 12.7999V8.7999ZM6.4001 5.5999C6.4001 5.38773 6.48438 5.18425 6.63441 5.03422C6.78444 4.88419 6.98792 4.7999 7.2001 4.7999H8.8001C9.01227 4.7999 9.21575 4.88419 9.36578 5.03422C9.51581 5.18425 9.6001 5.38773 9.6001 5.5999V12.7999C9.6001 13.0121 9.51581 13.2156 9.36578 13.3656C9.21575 13.5156 9.01227 13.5999 8.8001 13.5999H7.2001C6.98792 13.5999 6.78444 13.5156 6.63441 13.3656C6.48438 13.2156 6.4001 13.0121 6.4001 12.7999V5.5999ZM11.2001 3.1999C11.2001 2.98773 11.2844 2.78425 11.4344 2.63422C11.5844 2.48419 11.7879 2.3999 12.0001 2.3999H13.6001C13.8123 2.3999 14.0158 2.48419 14.1658 2.63422C14.3158 2.78425 14.4001 2.98773 14.4001 3.1999V12.7999C14.4001 13.0121 14.3158 13.2156 14.1658 13.3656C14.0158 13.5156 13.8123 13.5999 13.6001 13.5999H12.0001C11.7879 13.5999 11.5844 13.5156 11.4344 13.3656C11.2844 13.2156 11.2001 13.0121 11.2001 12.7999V3.1999Z" fill="#4B5563"/>
</svg>
