<svg width="23" height="23" viewBox="0 0 23 23" fill="none" xmlns="http://www.w3.org/2000/svg">
<path fill-rule="evenodd" clip-rule="evenodd" d="M2.92822 4.84489C3.42246 4.35066 4.09279 4.073 4.79174 4.073H18.2084C18.9074 4.073 19.5777 4.35066 20.0719 4.84489C20.5662 5.33913 20.8438 6.00946 20.8438 6.70842V7.65563C20.8439 7.66261 20.8439 7.66958 20.8438 7.67655V16.2917C20.8438 16.9907 20.5662 17.661 20.0719 18.1553C19.5777 18.6495 18.9074 18.9272 18.2084 18.9272H4.79174C4.09279 18.9272 3.42246 18.6495 2.92822 18.1553C2.43399 17.661 2.15633 16.9907 2.15633 16.2917V7.67658C2.15622 7.66959 2.15622 7.6626 2.15633 7.6556V6.70842C2.15633 6.00946 2.43399 5.33913 2.92822 4.84489ZM3.59383 9.00975V16.2917C3.59383 16.6095 3.72004 16.9142 3.94469 17.1388C4.16934 17.3635 4.47404 17.4897 4.79174 17.4897H18.2084C18.5261 17.4897 18.8308 17.3635 19.0555 17.1388C19.2801 16.9142 19.4063 16.6095 19.4063 16.2917V9.00975L12.9627 13.3055C12.5297 13.5944 12.0207 13.7486 11.5001 13.7486C10.9795 13.7486 10.4705 13.5944 10.0374 13.3055L3.59383 9.00975ZM19.4063 7.28208L12.1651 12.1095C11.9683 12.2409 11.7367 12.3111 11.5001 12.3111C11.2634 12.3111 11.0321 12.241 10.8352 12.1097L3.59383 7.28208V6.70842C3.59383 6.39071 3.72004 6.08601 3.94469 5.86136C4.16934 5.63671 4.47404 5.5105 4.79174 5.5105H18.2084C18.5261 5.5105 18.8308 5.63671 19.0555 5.86136C19.2801 6.08601 19.4063 6.39071 19.4063 6.70842V7.28208Z" fill="#1F2937"/>
</svg>
