<svg width="20" height="20" viewBox="0 0 20 20" fill="none" xmlns="http://www.w3.org/2000/svg">
<path fill-rule="evenodd" clip-rule="evenodd" d="M11.6295 4.0232C11.8076 4.07339 11.9567 4.20332 12.0396 4.38001C12.3501 5.04484 12.5822 5.44844 12.8156 5.7757C13.0521 6.10708 13.3016 6.37795 13.6821 6.78428C14.5603 7.72412 15 8.95685 15 10.1875C15 11.4182 14.5603 12.6509 13.6821 13.5908C11.9246 15.4697 9.07543 15.4697 7.31786 13.5908C6.43972 12.6509 6 11.4182 6 10.1875C6 8.95685 6.43972 7.72412 7.31786 6.78428C7.50172 6.58765 7.77814 6.52921 8.01857 6.63577C8.259 6.74165 8.41522 6.99262 8.41522 7.27038C8.41522 8.0404 8.46021 8.62685 8.67107 9.09505C8.78678 9.35219 8.96743 9.60383 9.27858 9.82865C9.35315 9.09919 9.48943 8.21021 9.67329 7.36731C9.81793 6.70317 9.99792 6.04039 10.2126 5.48762C10.32 5.21055 10.4415 4.9479 10.5791 4.72033C10.7128 4.49895 10.8851 4.27417 11.1075 4.11535C11.2611 4.00604 11.4514 3.97232 11.6295 4.0232ZM11.8635 13.0208C11.1107 13.8265 9.88928 13.8265 9.1365 13.0208C8.75978 12.6186 8.57143 12.0906 8.57143 11.5626C8.57143 11.5626 9.1365 11.9063 10.1786 11.9063C10.1786 11.2188 10.5 9.15624 10.9821 8.81247C11.3036 9.5 11.4874 9.70146 11.8635 10.1043C12.2402 10.5065 12.4286 11.0345 12.4286 11.5626C12.4286 12.0906 12.2402 12.6186 11.8635 13.0208Z" fill="#3F3F46"/>
</svg>
