<svg width="12" height="12" viewBox="0 0 12 12" fill="none" xmlns="http://www.w3.org/2000/svg">
<path fill-rule="evenodd" clip-rule="evenodd" d="M5 1.9525C5 1.42636 5.42636 1 5.9525 1H6C6.39782 1 6.77936 1.15804 7.06066 1.43934C7.34196 1.72064 7.5 2.10217 7.5 2.5V4.5H9.382C9.63765 4.50001 9.88907 4.56536 10.1124 4.68984C10.3357 4.81433 10.5234 4.99382 10.6579 5.21127C10.7923 5.42873 10.8689 5.67693 10.8804 5.93232C10.892 6.18771 10.838 6.44181 10.7238 6.6705L8.97377 10.1705C8.97375 10.1705 8.97378 10.1705 8.97377 10.1705C8.84917 10.4198 8.65752 10.6296 8.42042 10.7761C8.18335 10.9225 7.91017 11.0001 7.6315 11C7.63142 11 7.63158 11 7.6315 11H5.623C5.50089 11 5.37867 10.9851 5.25926 10.9551C5.25926 10.9551 5.25927 10.9551 5.25926 10.9551C5.25902 10.955 5.25876 10.955 5.25851 10.9549L3.43846 10.5H2.5C2.10217 10.5 1.72064 10.342 1.43934 10.0607C1.15804 9.77936 1 9.39783 1 9V6C1 5.60218 1.15804 5.22064 1.43934 4.93934C1.72064 4.65804 2.10217 4.5 2.5 4.5H3.56565L4.7803 2.67767C4.92365 2.46318 5 2.21093 5 1.9525ZM3 5.5H2.5C2.36739 5.5 2.24021 5.55268 2.14645 5.64645C2.05268 5.74021 2 5.86739 2 6V9C2 9.13261 2.05268 9.25979 2.14645 9.35355C2.24021 9.44732 2.36739 9.5 2.5 9.5H3V5.5ZM4 9.60959V5.65136L5.6117 3.23333C5.61162 3.23346 5.61178 3.23321 5.6117 3.23333C5.85637 2.8671 5.99049 2.43885 5.99951 2C6.13212 2 6.25979 2.05268 6.35355 2.14645C6.44732 2.24021 6.5 2.36739 6.5 2.5V4.5H6C5.72386 4.5 5.5 4.72386 5.5 5C5.5 5.27614 5.72386 5.5 6 5.5H9.38198C9.38198 5.5 9.38199 5.5 9.38198 5.5C9.46719 5.50001 9.55101 5.52179 9.62543 5.56328C9.69987 5.60478 9.76246 5.66461 9.80726 5.73709C9.85207 5.80958 9.87761 5.89231 9.88146 5.97744C9.8853 6.06253 9.86734 6.14719 9.82929 6.22339C9.82927 6.22343 9.8293 6.22336 9.82929 6.22339L8.07929 9.72339C8.03775 9.80651 7.97383 9.87652 7.89478 9.92536C7.81574 9.9742 7.72465 10 7.63173 10H5.623C5.58236 10 5.54184 9.99501 5.50249 9.98511L4 9.60959Z" fill="#9CA3AF"/>
</svg>
