<svg width="11" height="11" viewBox="0 0 11 11" fill="none" xmlns="http://www.w3.org/2000/svg">
<path d="M1.1001 5.7751C1.1001 5.66676 1.12144 5.55948 1.1629 5.45938C1.20436 5.35929 1.26513 5.26834 1.34173 5.19173C1.41834 5.11513 1.50929 5.05436 1.60938 5.0129C1.70948 4.97144 1.81676 4.9501 1.9251 4.9501C2.03344 4.9501 2.14072 4.97144 2.24081 5.0129C2.34091 5.05436 2.43185 5.11513 2.50846 5.19173C2.58507 5.26834 2.64584 5.35929 2.6873 5.45938C2.72876 5.55948 2.7501 5.66676 2.7501 5.7751V9.0751C2.7501 9.2939 2.66318 9.50374 2.50846 9.65846C2.35374 9.81318 2.1439 9.9001 1.9251 9.9001C1.70629 9.9001 1.49645 9.81318 1.34173 9.65846C1.18702 9.50374 1.1001 9.2939 1.1001 9.0751V5.7751ZM3.3001 5.68325V8.66975C3.3 8.87416 3.35687 9.07456 3.46432 9.24846C3.57176 9.42236 3.72554 9.56287 3.9084 9.65425L3.9359 9.668C4.24109 9.82053 4.57757 9.89999 4.91875 9.9001H7.89755C8.15194 9.9002 8.3985 9.81212 8.59525 9.65087C8.79201 9.48962 8.92679 9.26515 8.97665 9.0157L9.63665 5.7157C9.66854 5.55613 9.66464 5.39147 9.62521 5.23359C9.58578 5.07571 9.51182 4.92855 9.40866 4.8027C9.30549 4.67686 9.17568 4.57548 9.0286 4.50586C8.88152 4.43624 8.72082 4.40011 8.5581 4.4001H6.6001V2.2001C6.6001 1.90836 6.48421 1.62857 6.27792 1.42228C6.07163 1.21599 5.79184 1.1001 5.5001 1.1001C5.35423 1.1001 5.21433 1.15804 5.11119 1.26119C5.00804 1.36433 4.9501 1.50423 4.9501 1.6501V2.01695C4.9501 2.49296 4.79571 2.95614 4.5101 3.33695L3.7401 4.36325C3.45449 4.74406 3.3001 5.20723 3.3001 5.68325Z" fill="#4B5563"/>
</svg>
