<svg width="24" height="24" viewBox="0 0 24 24" fill="none" xmlns="http://www.w3.org/2000/svg">
<path fill-rule="evenodd" clip-rule="evenodd" d="M20.9174 0H14.7523V3.08257H20.9174L20.9174 6.16513L20.9174 7.70641H17.8349V10.789H20.9174L20.9174 9.2477H24V6.16513V3.08256L20.9174 3.08257V0ZM9.2477 3.08257H3.08257V6.16513V6.16513V7.70641H6.16513H6.16513H17.8349V13.4312L6.16513 13.4312L6.16513 10.789H3.08256L3.08257 9.2477H0V6.16513V6.16513V3.08256H3.08256V0H9.2477V3.08257ZM3.08257 15.4128H0V20.9174L3.08257 20.9174L3.08256 16.5138H6.16513V13.4312H3.08256L3.08257 15.4128ZM24 20.9174H0V24H24V20.9174ZM17.8349 13.4312H20.9174L20.9174 15.4128H24V20.9174L20.9174 20.9174L20.9174 16.5138H17.8349V13.4312Z" fill="#374151"/>
</svg>
