<svg width="26" height="26" viewBox="0 0 26 26" fill="none" xmlns="http://www.w3.org/2000/svg">
<path fill-rule="evenodd" clip-rule="evenodd" d="M25.9473 0H6.26327V3.13156H25.9473V0ZM25.9473 11.1843H14.3158V14.3159H19.684V19.6839H6.26307V9.39495V9.39467V6.26339H3.13156H3.13152H0V9.39467V9.39495V19.6841H3.13152V22.8154H25.9471V19.6841H25.9473V14.3159H25.9473V11.1843ZM22.8155 19.6839H22.8157V14.3159H22.8155V19.6839ZM3.13152 3.13164H6.26307V6.26319H3.13152V3.13164ZM9.39479 3.13164H6.26327V6.26319H9.39479H9.39483H12.5263V3.13164H9.39483H9.39479ZM9.39483 6.26339H6.26327V9.39495H9.39483V6.26339ZM6.26327 22.8157H25.9473V25.9473H6.26327V22.8157Z" fill="#374151"/>
</svg>
