<svg width="18" height="17" viewBox="0 0 18 17" fill="none" xmlns="http://www.w3.org/2000/svg">
<path fill-rule="evenodd" clip-rule="evenodd" d="M9.00007 1.46143C8.79429 1.46143 8.59312 1.52237 8.42194 1.63658L2.58861 5.52492C2.58853 5.52496 2.58868 5.52487 2.58861 5.52492C2.44609 5.62006 2.32902 5.74904 2.2482 5.90014C2.22409 5.94521 2.20341 5.99185 2.18626 6.03965L8.42175 10.1966C8.59293 10.3109 8.79429 10.3719 9.00007 10.3719C9.20585 10.3719 9.40701 10.311 9.57819 10.1968L15.8139 6.03965C15.7967 5.99185 15.776 5.94521 15.7519 5.90014C15.6711 5.74896 15.5541 5.62007 15.4115 5.52492L9.57841 1.63673C9.40724 1.52252 9.20584 1.46143 9.00007 1.46143ZM17.1248 6.35423C17.1258 6.32536 17.1248 6.29637 17.1217 6.26746C17.1036 5.93328 17.0125 5.60659 16.8542 5.3106C16.6763 4.97799 16.419 4.69444 16.1053 4.4851L10.2719 0.596769C9.8954 0.345608 9.45269 0.211426 9.00007 0.211426C8.54744 0.211426 8.10496 0.34546 7.72841 0.596621L1.89508 4.48495C1.58131 4.69429 1.32385 4.97799 1.14595 5.3106C0.987643 5.60659 0.896526 5.93328 0.878422 6.26744C0.875382 6.29636 0.874378 6.32537 0.875368 6.35424C0.875166 6.36671 0.875065 6.37919 0.875066 6.39167C0.875066 6.39164 0.875066 6.39171 0.875066 6.39167V13.8333C0.875066 14.4411 1.11651 15.024 1.54628 15.4538C1.97605 15.8836 2.55894 16.125 3.16673 16.125H14.8334C15.4412 16.125 16.0241 15.8836 16.4539 15.4538C16.8836 15.024 17.1251 14.4411 17.1251 13.8333V6.39177C17.1251 6.39174 17.1251 6.3918 17.1251 6.39177C17.1251 6.37928 17.125 6.3667 17.1248 6.35423ZM15.8751 7.50116L12.0018 10.0833L15.8751 12.6655V7.50116ZM15.8297 14.1376L10.8751 10.8345L10.2719 11.2366C9.89535 11.4878 9.45278 11.6219 9.00007 11.6219C8.54735 11.6219 8.10478 11.4878 7.72819 11.2366L7.12507 10.8345L2.17048 14.1376C2.21987 14.2993 2.30839 14.4481 2.43016 14.5699C2.62551 14.7653 2.89047 14.875 3.16673 14.875H14.8334C15.1097 14.875 15.3746 14.7653 15.57 14.5699C15.6917 14.4481 15.7803 14.2993 15.8297 14.1376ZM2.12507 12.6655L5.99833 10.0833L2.12507 7.50116V12.6655Z" fill="#9CA3AF"/>
</svg>
